<svg width="681" height="932" viewBox="0 0 681 932" fill="none" xmlns="http://www.w3.org/2000/svg">
<rect width="681" height="932" fill="#D9D9D9"/>
<path d="M150.026 449V398.091H169.515C173.194 398.091 176.251 398.671 178.687 399.831C181.14 400.974 182.971 402.54 184.181 404.529C185.407 406.518 186.021 408.772 186.021 411.29C186.021 413.362 185.623 415.135 184.827 416.61C184.032 418.068 182.963 419.253 181.621 420.165C180.278 421.076 178.779 421.731 177.121 422.129V422.626C178.928 422.725 180.659 423.28 182.317 424.291C183.99 425.286 185.358 426.694 186.418 428.517C187.479 430.34 188.009 432.544 188.009 435.129C188.009 437.764 187.371 440.134 186.095 442.239C184.819 444.327 182.897 445.976 180.328 447.185C177.759 448.395 174.528 449 170.633 449H150.026ZM159.248 441.294H169.167C172.514 441.294 174.926 440.656 176.4 439.38C177.892 438.087 178.638 436.43 178.638 434.408C178.638 432.9 178.265 431.541 177.519 430.332C176.773 429.105 175.713 428.144 174.337 427.448C172.962 426.736 171.321 426.379 169.415 426.379H159.248V441.294ZM159.248 419.742H168.371C169.962 419.742 171.396 419.452 172.672 418.872C173.948 418.276 174.95 417.439 175.68 416.362C176.425 415.268 176.798 413.975 176.798 412.484C176.798 410.512 176.102 408.888 174.71 407.612C173.335 406.335 171.288 405.697 168.57 405.697H159.248V419.742ZM212.289 449.746C208.56 449.746 205.329 448.925 202.595 447.285C199.86 445.644 197.739 443.349 196.231 440.399C194.739 437.449 193.994 434.002 193.994 430.058C193.994 426.114 194.739 422.659 196.231 419.692C197.739 416.726 199.86 414.423 202.595 412.782C205.329 411.141 208.56 410.321 212.289 410.321C216.018 410.321 219.249 411.141 221.984 412.782C224.718 414.423 226.831 416.726 228.323 419.692C229.831 422.659 230.585 426.114 230.585 430.058C230.585 434.002 229.831 437.449 228.323 440.399C226.831 443.349 224.718 445.644 221.984 447.285C219.249 448.925 216.018 449.746 212.289 449.746ZM212.339 442.537C214.361 442.537 216.051 441.982 217.41 440.871C218.769 439.745 219.78 438.237 220.443 436.347C221.122 434.458 221.462 432.353 221.462 430.033C221.462 427.697 221.122 425.584 220.443 423.695C219.78 421.789 218.769 420.272 217.41 419.146C216.051 418.019 214.361 417.455 212.339 417.455C210.267 417.455 208.544 418.019 207.168 419.146C205.81 420.272 204.79 421.789 204.111 423.695C203.448 425.584 203.117 427.697 203.117 430.033C203.117 432.353 203.448 434.458 204.111 436.347C204.79 438.237 205.81 439.745 207.168 440.871C208.544 441.982 210.267 442.537 212.339 442.537ZM254.877 449.746C251.148 449.746 247.917 448.925 245.182 447.285C242.448 445.644 240.327 443.349 238.819 440.399C237.327 437.449 236.582 434.002 236.582 430.058C236.582 426.114 237.327 422.659 238.819 419.692C240.327 416.726 242.448 414.423 245.182 412.782C247.917 411.141 251.148 410.321 254.877 410.321C258.606 410.321 261.837 411.141 264.572 412.782C267.306 414.423 269.419 416.726 270.91 419.692C272.418 422.659 273.172 426.114 273.172 430.058C273.172 434.002 272.418 437.449 270.91 440.399C269.419 443.349 267.306 445.644 264.572 447.285C261.837 448.925 258.606 449.746 254.877 449.746ZM254.927 442.537C256.949 442.537 258.639 441.982 259.998 440.871C261.357 439.745 262.368 438.237 263.03 436.347C263.71 434.458 264.05 432.353 264.05 430.033C264.05 427.697 263.71 425.584 263.03 423.695C262.368 421.789 261.357 420.272 259.998 419.146C258.639 418.019 256.949 417.455 254.927 417.455C252.855 417.455 251.132 418.019 249.756 419.146C248.397 420.272 247.378 421.789 246.699 423.695C246.036 425.584 245.704 427.697 245.704 430.033C245.704 432.353 246.036 434.458 246.699 436.347C247.378 438.237 248.397 439.745 249.756 440.871C251.132 441.982 252.855 442.537 254.927 442.537ZM289.013 437.018L288.988 426.156H290.43L304.152 410.818H314.667L297.788 429.611H295.924L289.013 437.018ZM280.81 449V398.091H289.809V449H280.81ZM304.773 449L292.344 431.624L298.41 425.286L315.537 449H304.773ZM382.001 415.268H372.704C372.439 413.743 371.95 412.393 371.237 411.216C370.525 410.023 369.638 409.012 368.577 408.183C367.517 407.355 366.307 406.733 364.948 406.319C363.606 405.888 362.156 405.673 360.598 405.673C357.83 405.673 355.378 406.369 353.24 407.761C351.102 409.136 349.428 411.158 348.219 413.826C347.009 416.478 346.404 419.717 346.404 423.545C346.404 427.44 347.009 430.721 348.219 433.389C349.445 436.041 351.119 438.046 353.24 439.405C355.378 440.747 357.822 441.418 360.573 441.418C362.098 441.418 363.523 441.219 364.849 440.822C366.191 440.407 367.392 439.803 368.453 439.007C369.53 438.212 370.433 437.234 371.163 436.074C371.908 434.914 372.422 433.588 372.704 432.097L382.001 432.146C381.653 434.566 380.899 436.836 379.739 438.957C378.595 441.079 377.095 442.951 375.239 444.575C373.383 446.183 371.212 447.442 368.726 448.354C366.241 449.249 363.481 449.696 360.449 449.696C355.974 449.696 351.98 448.66 348.467 446.589C344.954 444.517 342.186 441.526 340.165 437.615C338.143 433.704 337.132 429.014 337.132 423.545C337.132 418.06 338.151 413.37 340.19 409.476C342.228 405.565 345.004 402.574 348.517 400.502C352.03 398.431 356.007 397.395 360.449 397.395C363.283 397.395 365.918 397.793 368.354 398.588C370.79 399.384 372.961 400.552 374.866 402.093C376.772 403.618 378.338 405.49 379.565 407.711C380.807 409.915 381.619 412.434 382.001 415.268ZM406.703 449.746C402.975 449.746 399.743 448.925 397.009 447.285C394.274 445.644 392.153 443.349 390.645 440.399C389.153 437.449 388.408 434.002 388.408 430.058C388.408 426.114 389.153 422.659 390.645 419.692C392.153 416.726 394.274 414.423 397.009 412.782C399.743 411.141 402.975 410.321 406.703 410.321C410.432 410.321 413.663 411.141 416.398 412.782C419.132 414.423 421.245 416.726 422.737 419.692C424.245 422.659 424.999 426.114 424.999 430.058C424.999 434.002 424.245 437.449 422.737 440.399C421.245 443.349 419.132 445.644 416.398 447.285C413.663 448.925 410.432 449.746 406.703 449.746ZM406.753 442.537C408.775 442.537 410.465 441.982 411.824 440.871C413.183 439.745 414.194 438.237 414.857 436.347C415.536 434.458 415.876 432.353 415.876 430.033C415.876 427.697 415.536 425.584 414.857 423.695C414.194 421.789 413.183 420.272 411.824 419.146C410.465 418.019 408.775 417.455 406.753 417.455C404.681 417.455 402.958 418.019 401.582 419.146C400.224 420.272 399.204 421.789 398.525 423.695C397.862 425.584 397.531 427.697 397.531 430.033C397.531 432.353 397.862 434.458 398.525 436.347C399.204 438.237 400.224 439.745 401.582 440.871C402.958 441.982 404.681 442.537 406.753 442.537ZM465.443 410.818L451.845 449H441.902L428.305 410.818H437.9L446.675 439.181H447.073L455.872 410.818H465.443ZM487.274 449.746C483.446 449.746 480.14 448.95 477.356 447.359C474.588 445.752 472.459 443.482 470.967 440.548C469.476 437.598 468.73 434.127 468.73 430.133C468.73 426.205 469.476 422.758 470.967 419.792C472.475 416.809 474.58 414.489 477.281 412.832C479.982 411.158 483.156 410.321 486.802 410.321C489.155 410.321 491.376 410.702 493.464 411.464C495.568 412.21 497.424 413.37 499.032 414.945C500.656 416.519 501.932 418.524 502.86 420.96C503.788 423.38 504.252 426.263 504.252 429.611V432.37H472.956V426.305H495.626C495.61 424.581 495.237 423.048 494.508 421.706C493.779 420.347 492.759 419.278 491.45 418.499C490.158 417.72 488.65 417.331 486.926 417.331C485.087 417.331 483.471 417.778 482.079 418.673C480.687 419.552 479.601 420.712 478.822 422.153C478.06 423.579 477.671 425.145 477.654 426.852V432.146C477.654 434.367 478.06 436.273 478.872 437.864C479.684 439.438 480.819 440.648 482.278 441.493C483.736 442.321 485.443 442.736 487.398 442.736C488.708 442.736 489.892 442.554 490.953 442.189C492.014 441.808 492.933 441.253 493.712 440.523C494.491 439.794 495.079 438.891 495.477 437.814L503.879 438.759C503.349 440.979 502.338 442.918 500.847 444.575C499.372 446.216 497.482 447.492 495.179 448.403C492.875 449.298 490.24 449.746 487.274 449.746ZM511.865 449V410.818H520.59V417.182H520.988C521.684 414.978 522.877 413.279 524.567 412.086C526.274 410.876 528.221 410.271 530.409 410.271C530.906 410.271 531.461 410.296 532.074 410.346C532.704 410.379 533.226 410.437 533.64 410.52V418.798C533.259 418.665 532.654 418.549 531.826 418.45C531.014 418.334 530.227 418.276 529.464 418.276C527.824 418.276 526.349 418.632 525.04 419.344C523.747 420.04 522.728 421.01 521.982 422.253C521.236 423.496 520.863 424.929 520.863 426.553V449H511.865ZM180.716 483.091H189.939V516.351C189.939 519.997 189.077 523.203 187.354 525.971C185.647 528.738 183.244 530.901 180.145 532.459C177.046 534 173.425 534.771 169.282 534.771C165.122 534.771 161.493 534 158.394 532.459C155.295 530.901 152.892 528.738 151.185 525.971C149.478 523.203 148.625 519.997 148.625 516.351V483.091H157.847V515.58C157.847 517.701 158.311 519.591 159.239 521.248C160.184 522.905 161.51 524.206 163.216 525.151C164.923 526.079 166.945 526.543 169.282 526.543C171.618 526.543 173.64 526.079 175.347 525.151C177.071 524.206 178.396 522.905 179.324 521.248C180.252 519.591 180.716 517.701 180.716 515.58V483.091ZM208.564 511.628V534H199.565V495.818H208.166V502.306H208.613C209.492 500.168 210.892 498.47 212.814 497.21C214.753 495.951 217.148 495.321 219.998 495.321C222.633 495.321 224.928 495.884 226.884 497.011C228.856 498.138 230.381 499.771 231.458 501.908C232.551 504.046 233.09 506.64 233.074 509.689V534H224.075V511.081C224.075 508.529 223.412 506.532 222.086 505.09C220.777 503.648 218.962 502.928 216.642 502.928C215.068 502.928 213.668 503.276 212.441 503.972C211.232 504.651 210.279 505.637 209.583 506.93C208.903 508.222 208.564 509.788 208.564 511.628ZM253.208 534.771C250.789 534.771 248.61 534.34 246.671 533.478C244.748 532.6 243.224 531.307 242.097 529.6C240.987 527.893 240.431 525.789 240.431 523.286C240.431 521.132 240.829 519.35 241.625 517.942C242.42 516.533 243.506 515.406 244.881 514.561C246.257 513.716 247.806 513.078 249.529 512.647C251.27 512.2 253.068 511.876 254.924 511.678C257.161 511.446 258.975 511.238 260.368 511.056C261.76 510.857 262.77 510.559 263.4 510.161C264.047 509.747 264.37 509.109 264.37 508.247V508.098C264.37 506.225 263.815 504.775 262.704 503.748C261.594 502.72 259.995 502.207 257.907 502.207C255.703 502.207 253.954 502.687 252.662 503.648C251.386 504.61 250.524 505.745 250.076 507.054L241.674 505.861C242.337 503.541 243.431 501.602 244.956 500.044C246.48 498.47 248.345 497.293 250.549 496.514C252.753 495.719 255.189 495.321 257.857 495.321C259.696 495.321 261.528 495.536 263.35 495.967C265.173 496.398 266.839 497.111 268.347 498.105C269.855 499.083 271.065 500.417 271.976 502.107C272.904 503.798 273.368 505.911 273.368 508.446V534H264.718V528.755H264.419C263.873 529.816 263.102 530.81 262.108 531.738C261.13 532.649 259.895 533.387 258.404 533.95C256.929 534.497 255.197 534.771 253.208 534.771ZM255.545 528.158C257.351 528.158 258.917 527.802 260.243 527.089C261.569 526.36 262.588 525.399 263.301 524.206C264.03 523.013 264.395 521.712 264.395 520.303V515.804C264.113 516.036 263.632 516.251 262.953 516.45C262.29 516.649 261.544 516.823 260.716 516.972C259.887 517.121 259.067 517.254 258.255 517.37C257.443 517.486 256.738 517.585 256.142 517.668C254.799 517.851 253.598 518.149 252.537 518.563C251.477 518.978 250.64 519.558 250.027 520.303C249.413 521.032 249.107 521.977 249.107 523.137C249.107 524.794 249.712 526.045 250.922 526.891C252.131 527.736 253.672 528.158 255.545 528.158ZM315.154 495.818L301.557 534H291.614L278.017 495.818H287.612L296.387 524.181H296.784L305.584 495.818H315.154ZM331.275 534.771C328.855 534.771 326.676 534.34 324.737 533.478C322.815 532.6 321.29 531.307 320.163 529.6C319.053 527.893 318.498 525.789 318.498 523.286C318.498 521.132 318.896 519.35 319.691 517.942C320.487 516.533 321.572 515.406 322.947 514.561C324.323 513.716 325.872 513.078 327.596 512.647C329.336 512.2 331.134 511.876 332.99 511.678C335.227 511.446 337.042 511.238 338.434 511.056C339.826 510.857 340.837 510.559 341.467 510.161C342.113 509.747 342.436 509.109 342.436 508.247V508.098C342.436 506.225 341.881 504.775 340.771 503.748C339.66 502.72 338.061 502.207 335.973 502.207C333.769 502.207 332.021 502.687 330.728 503.648C329.452 504.61 328.59 505.745 328.143 507.054L319.741 505.861C320.404 503.541 321.497 501.602 323.022 500.044C324.547 498.47 326.411 497.293 328.615 496.514C330.819 495.719 333.255 495.321 335.923 495.321C337.763 495.321 339.594 495.536 341.417 495.967C343.24 496.398 344.905 497.111 346.413 498.105C347.921 499.083 349.131 500.417 350.043 502.107C350.971 503.798 351.435 505.911 351.435 508.446V534H342.784V528.755H342.486C341.939 529.816 341.168 530.81 340.174 531.738C339.196 532.649 337.962 533.387 336.47 533.95C334.995 534.497 333.263 534.771 331.275 534.771ZM333.612 528.158C335.418 528.158 336.984 527.802 338.31 527.089C339.635 526.36 340.655 525.399 341.367 524.206C342.096 523.013 342.461 521.712 342.461 520.303V515.804C342.179 516.036 341.699 516.251 341.019 516.45C340.356 516.649 339.611 516.823 338.782 516.972C337.953 517.121 337.133 517.254 336.321 517.37C335.509 517.486 334.805 517.585 334.208 517.668C332.866 517.851 331.664 518.149 330.604 518.563C329.543 518.978 328.706 519.558 328.093 520.303C327.48 521.032 327.173 521.977 327.173 523.137C327.173 524.794 327.778 526.045 328.988 526.891C330.198 527.736 331.739 528.158 333.612 528.158ZM360.483 534V495.818H369.482V534H360.483ZM365.007 490.399C363.582 490.399 362.356 489.927 361.328 488.982C360.301 488.021 359.787 486.869 359.787 485.527C359.787 484.168 360.301 483.016 361.328 482.072C362.356 481.111 363.582 480.63 365.007 480.63C366.449 480.63 367.675 481.111 368.686 482.072C369.714 483.016 370.227 484.168 370.227 485.527C370.227 486.869 369.714 488.021 368.686 488.982C367.675 489.927 366.449 490.399 365.007 490.399ZM387.733 483.091V534H378.735V483.091H387.733ZM407.974 534.771C405.555 534.771 403.375 534.34 401.436 533.478C399.514 532.6 397.989 531.307 396.863 529.6C395.752 527.893 395.197 525.789 395.197 523.286C395.197 521.132 395.595 519.35 396.39 517.942C397.186 516.533 398.271 515.406 399.647 514.561C401.022 513.716 402.572 513.078 404.295 512.647C406.035 512.2 407.833 511.876 409.689 511.678C411.926 511.446 413.741 511.238 415.133 511.056C416.525 510.857 417.536 510.559 418.166 510.161C418.812 509.747 419.135 509.109 419.135 508.247V508.098C419.135 506.225 418.58 504.775 417.47 503.748C416.359 502.72 414.76 502.207 412.672 502.207C410.468 502.207 408.72 502.687 407.427 503.648C406.151 504.61 405.289 505.745 404.842 507.054L396.44 505.861C397.103 503.541 398.197 501.602 399.721 500.044C401.246 498.47 403.11 497.293 405.314 496.514C407.518 495.719 409.954 495.321 412.623 495.321C414.462 495.321 416.293 495.536 418.116 495.967C419.939 496.398 421.605 497.111 423.113 498.105C424.621 499.083 425.83 500.417 426.742 502.107C427.67 503.798 428.134 505.911 428.134 508.446V534H419.483V528.755H419.185C418.638 529.816 417.868 530.81 416.873 531.738C415.895 532.649 414.661 533.387 413.169 533.95C411.694 534.497 409.963 534.771 407.974 534.771ZM410.311 528.158C412.117 528.158 413.683 527.802 415.009 527.089C416.335 526.36 417.354 525.399 418.066 524.206C418.796 523.013 419.16 521.712 419.16 520.303V515.804C418.878 516.036 418.398 516.251 417.718 516.45C417.056 516.649 416.31 516.823 415.481 516.972C414.653 517.121 413.832 517.254 413.02 517.37C412.208 517.486 411.504 517.585 410.907 517.668C409.565 517.851 408.364 518.149 407.303 518.563C406.242 518.978 405.405 519.558 404.792 520.303C404.179 521.032 403.873 521.977 403.873 523.137C403.873 524.794 404.477 526.045 405.687 526.891C406.897 527.736 408.438 528.158 410.311 528.158ZM437.58 534V483.091H446.578V502.132H446.951C447.415 501.204 448.07 500.218 448.915 499.174C449.76 498.113 450.904 497.21 452.346 496.464C453.787 495.702 455.627 495.321 457.864 495.321C460.814 495.321 463.474 496.075 465.843 497.583C468.23 499.075 470.119 501.287 471.511 504.22C472.92 507.137 473.624 510.716 473.624 514.959C473.624 519.152 472.936 522.714 471.561 525.648C470.185 528.581 468.313 530.818 465.943 532.359C463.573 533.901 460.888 534.671 457.889 534.671C455.701 534.671 453.887 534.307 452.445 533.577C451.003 532.848 449.843 531.97 448.965 530.942C448.103 529.898 447.432 528.912 446.951 527.984H446.429V534H437.58ZM446.404 514.909C446.404 517.378 446.752 519.541 447.449 521.397C448.161 523.253 449.18 524.703 450.506 525.747C451.848 526.775 453.472 527.288 455.378 527.288C457.367 527.288 459.032 526.758 460.375 525.697C461.717 524.62 462.728 523.154 463.407 521.298C464.103 519.425 464.451 517.295 464.451 514.909C464.451 512.539 464.112 510.435 463.432 508.595C462.753 506.756 461.742 505.314 460.4 504.27C459.057 503.226 457.383 502.704 455.378 502.704C453.456 502.704 451.824 503.209 450.481 504.22C449.139 505.231 448.12 506.648 447.424 508.471C446.744 510.294 446.404 512.44 446.404 514.909ZM490.273 483.091V534H481.274V483.091H490.273ZM516.429 534.746C512.601 534.746 509.295 533.95 506.511 532.359C503.743 530.752 501.614 528.482 500.123 525.548C498.631 522.598 497.885 519.127 497.885 515.133C497.885 511.205 498.631 507.758 500.123 504.792C501.631 501.809 503.735 499.489 506.436 497.832C509.138 496.158 512.311 495.321 515.957 495.321C518.31 495.321 520.531 495.702 522.619 496.464C524.724 497.21 526.58 498.37 528.187 499.945C529.811 501.519 531.087 503.524 532.015 505.96C532.943 508.38 533.407 511.263 533.407 514.611V517.37H502.111V511.305H524.782C524.765 509.581 524.392 508.048 523.663 506.706C522.934 505.347 521.915 504.278 520.605 503.499C519.313 502.72 517.805 502.331 516.081 502.331C514.242 502.331 512.626 502.778 511.234 503.673C509.842 504.552 508.757 505.712 507.978 507.153C507.215 508.579 506.826 510.145 506.809 511.852V517.146C506.809 519.367 507.215 521.273 508.027 522.864C508.839 524.438 509.975 525.648 511.433 526.493C512.891 527.321 514.598 527.736 516.554 527.736C517.863 527.736 519.048 527.554 520.108 527.189C521.169 526.808 522.089 526.253 522.868 525.523C523.646 524.794 524.235 523.891 524.632 522.814L533.034 523.759C532.504 525.979 531.493 527.918 530.002 529.575C528.527 531.216 526.638 532.492 524.334 533.403C522.031 534.298 519.396 534.746 516.429 534.746Z" fill="#1E1E1E"/>
</svg>
